<svg xmlns="http://www.w3.org/2000/svg" viewBox="0 0 48 48" fill="none">
  <circle cx="24" cy="24" r="21.5" stroke="#d4d4d4" stroke-width="1.5" stroke-opacity="0.4" stroke-dasharray="120 15" stroke-linecap="round"/>
  <path d="M24 6.5 L37 11.5 V22 C37 31.5 31.5 38.5 24 41.5 C16.5 38.5 11 31.5 11 22 V11.5 Z" stroke="#d4d4d4" stroke-width="1.4" stroke-opacity="0.6" fill="#d4d4d4" fill-opacity="0.08"/>
  <path d="M24 24 L38.5 24 A14.5 14.5 0 0 0 36.2 14.6" stroke="#d4d4d4" stroke-width="1.4" stroke-linecap="round" stroke-opacity="0.5"/>
  <circle cx="24" cy="18" r="2.4" fill="#d4d4d4"/>
  <circle cx="24" cy="24" r="2.4" fill="#d4d4d4"/>
  <circle cx="24" cy="30" r="2.4" fill="#d4d4d4"/>
  <circle cx="19.5" cy="13.5" r="1.5" fill="#d4d4d4" opacity="0.5"/>
  <circle cx="28.5" cy="13.5" r="1.5" fill="#d4d4d4" opacity="0.5"/>
  <circle cx="19.5" cy="34.5" r="1.5" fill="#d4d4d4" opacity="0.5"/>
  <circle cx="28.5" cy="34.5" r="1.5" fill="#d4d4d4" opacity="0.5"/>
  <path d="M19.5 13.5 L24 18 M28.5 13.5 L24 18 M19.5 34.5 L24 30 M28.5 34.5 L24 30" stroke="#d4d4d4" stroke-width="1" stroke-opacity="0.4" stroke-linecap="round"/>
</svg>
